<?xml version="1.0" standalone="no"?>
<!DOCTYPE svg PUBLIC "-//W3C//DTD SVG 20010904//EN"
 "http://www.w3.org/TR/2001/REC-SVG-20010904/DTD/svg10.dtd">
<svg version="1.0" xmlns="http://www.w3.org/2000/svg"
 width="344.000000pt" height="452.000000pt" viewBox="0 0 344.000000 452.000000"
 preserveAspectRatio="xMidYMid meet">

<g transform="translate(0.000000,452.000000) scale(0.100000,-0.100000)"
fill="#000000" stroke="none">
<path d="M1660 4511 c-63 -20 -118 -70 -604 -553 -423 -420 -520 -522 -539
-563 l-22 -50 0 -610 0 -610 23 -50 c19 -41 120 -146 544 -565 286 -283 534
-523 552 -532 51 -27 118 -32 183 -13 57 16 65 23 582 538 414 413 528 532
547 572 l24 50 0 604 c0 429 -3 616 -12 645 -10 35 -87 117 -537 570 -388 390
-537 533 -569 548 -49 22 -134 32 -172 19z m136 -76 c34 -14 454 -418 454
-436 0 -4 -85 -66 -190 -136 -123 -83 -189 -134 -190 -145 0 -11 7 -18 17 -18
10 0 105 59 211 131 187 127 194 130 213 113 10 -9 19 -22 19 -28 0 -6 -34
-33 -75 -60 -49 -32 -75 -55 -75 -67 0 -31 27 -22 113 37 l81 55 224 -223
c123 -123 237 -243 253 -267 24 -37 29 -56 29 -105 l0 -61 -193 -131 c-130
-89 -192 -137 -192 -149 0 -10 5 -20 10 -22 6 -2 93 53 193 121 l182 125 0
-77 0 -77 -125 -84 c-69 -47 -125 -91 -125 -98 0 -34 36 -21 140 51 l110 76
-2 -273 -3 -272 -24 -3 c-20 -3 -105 77 -510 481 -480 480 -487 486 -544 502
-65 19 -129 14 -182 -12 -16 -8 -246 -231 -511 -494 -383 -382 -486 -479 -506
-479 -14 0 -29 7 -32 16 -11 29 -7 876 5 919 9 34 86 116 522 553 327 327 526
520 552 532 48 24 102 26 151 5z m-318 -1581 c29 -33 28 -69 -3 -99 -59 -60
-159 6 -123 82 15 32 55 55 83 47 11 -3 30 -17 43 -30z m612 -4 c6 -10 10 -32
10 -49 0 -34 -39 -71 -75 -71 -35 0 -75 37 -75 70 0 43 10 61 43 75 36 15 82
3 97 -25z m-206 -152 c9 -15 -2 -30 -69 -98 -44 -44 -86 -80 -95 -80 -8 0 -47
33 -87 72 -71 71 -90 109 -60 122 6 2 77 4 156 3 125 -2 145 -4 155 -19z
m-381 -35 c3 -18 39 -61 95 -115 80 -79 93 -88 127 -88 34 0 47 9 127 88 58
57 91 97 95 116 l6 29 98 -7 c151 -10 260 -44 327 -100 135 -115 145 -378 27
-716 -105 -300 -299 -560 -492 -656 -77 -38 -80 -39 -189 -39 -107 0 -112 1
-185 37 -241 119 -466 464 -555 853 -27 116 -26 321 1 393 55 149 206 226 451
231 59 1 62 0 67 -26z"/>
<path d="M140 1875 l-144 -145 38 -39 39 -40 65 60 65 60 34 -33 c18 -17 33
-37 33 -42 0 -6 -26 -36 -57 -68 l-57 -58 34 -35 c19 -20 40 -34 46 -33 6 2
73 67 149 146 l138 143 -33 34 c-19 19 -39 35 -44 35 -6 0 -34 -23 -63 -52
l-53 -52 -35 34 -35 34 57 58 57 58 -39 40 c-21 22 -42 40 -45 40 -3 0 -70
-65 -150 -145z"/>
<path d="M3125 1961 c-11 -5 -44 -34 -72 -64 -47 -49 -53 -61 -53 -98 0 -40 5
-47 113 -156 110 -109 115 -113 157 -113 40 0 48 5 108 65 63 63 65 65 59 106
-5 38 -18 55 -114 151 -88 88 -115 109 -143 113 -19 3 -44 1 -55 -4z m123
-185 c45 -46 82 -89 82 -96 0 -16 -29 -50 -43 -50 -13 0 -187 171 -187 184 0
16 32 46 50 46 9 0 53 -38 98 -84z"/>
<path d="M2880 1725 l-34 -35 89 -91 90 -90 -123 58 -123 57 -52 -52 -52 -52
157 -157 157 -157 36 34 c19 19 35 39 35 44 0 6 -39 50 -87 99 l-88 88 100
-46 c55 -25 111 -53 124 -62 23 -14 25 -13 77 38 l54 54 -152 152 c-84 84
-158 153 -163 153 -6 0 -26 -16 -45 -35z"/>
<path d="M410 1605 l-144 -144 29 -31 c16 -16 34 -30 40 -30 13 0 285 272 285
286 0 10 -51 64 -61 64 -2 0 -69 -65 -149 -145z"/>
<path d="M533 1527 c-68 -69 -124 -134 -128 -149 -9 -35 6 -62 78 -135 l61
-63 23 22 c13 12 23 26 23 32 0 6 -23 34 -52 63 l-52 53 34 35 33 35 50 -47
49 -46 26 27 26 26 -47 48 -47 48 28 27 c15 15 32 27 37 27 5 0 32 -23 60 -50
l51 -50 24 25 24 26 -84 84 c-47 47 -87 85 -90 85 -3 0 -61 -55 -127 -123z"/>
<path d="M2602 1447 l-32 -33 158 -157 158 -157 32 33 c18 18 32 37 32 43 0
13 -293 304 -306 304 -5 0 -24 -15 -42 -33z"/>
<path d="M742 1317 c-105 -107 -122 -128 -122 -156 0 -46 20 -77 97 -154 l69
-67 29 30 29 31 -62 62 -62 62 117 117 117 118 -39 40 c-21 22 -42 40 -45 40
-3 0 -61 -56 -128 -123z"/>
<path d="M2447 1392 c-34 -35 -36 -40 -22 -52 14 -12 21 -8 53 23 33 33 35 38
21 52 -13 13 -19 11 -52 -23z"/>
<path d="M2502 1347 c-18 -18 -32 -37 -32 -43 0 -5 52 -61 115 -124 63 -63
115 -122 115 -130 0 -20 -20 -40 -40 -40 -8 0 -69 54 -135 120 l-119 120 -33
-32 c-18 -18 -33 -37 -33 -43 0 -17 252 -261 278 -269 13 -4 35 -5 48 -2 31 8
111 80 131 119 28 56 14 82 -130 225 l-133 132 -32 -33z"/>
<path d="M2317 1262 c-34 -35 -36 -40 -22 -52 14 -12 21 -8 53 23 33 33 35 38
21 52 -13 13 -19 11 -52 -23z"/>
<path d="M1065 1152 c-16 -11 -69 -60 -117 -109 -84 -86 -88 -93 -88 -135 0
-40 5 -49 53 -96 48 -47 57 -52 98 -52 44 0 47 2 152 109 133 135 135 144 50
232 -67 68 -102 80 -148 51z m87 -99 c10 -9 18 -21 18 -27 0 -17 -153 -166
-171 -166 -9 0 -24 9 -34 20 -17 19 -16 22 65 105 46 47 88 85 93 85 6 0 19
-7 29 -17z"/>
<path d="M2213 1058 c-39 -40 -74 -83 -78 -96 -13 -43 14 -86 113 -185 141
-141 170 -143 289 -25 l73 73 -87 87 -87 88 -33 -32 c-18 -18 -33 -37 -33 -42
0 -6 23 -34 52 -63 51 -51 51 -53 33 -73 -10 -11 -25 -20 -34 -20 -20 0 -181
160 -181 180 0 8 24 38 52 67 l52 53 -29 30 -30 30 -72 -72z"/>
<path d="M2022 867 c-18 -18 -32 -37 -32 -42 0 -5 39 -49 88 -98 l87 -88 -124
61 -125 61 -53 -53 -53 -53 157 -157 158 -158 40 40 40 40 -90 90 c-49 49 -86
90 -82 90 4 0 59 -26 122 -57 l115 -58 52 53 53 52 -155 155 c-85 85 -157 155
-160 155 -4 0 -20 -15 -38 -33z"/>
<path d="M1739 584 l-33 -35 157 -157 157 -157 37 37 37 38 -44 46 c-25 25
-97 95 -161 154 l-116 109 -34 -35z"/>
<path d="M1635 470 c-11 -4 -54 -42 -95 -84 l-75 -76 157 -157 157 -157 36 34
c19 19 35 39 35 44 0 6 -21 32 -47 58 l-47 48 31 32 c71 75 69 119 -10 195
-73 71 -97 82 -142 63z m70 -140 l39 -40 -25 -25 -25 -25 -44 45 c-43 44 -43
45 -25 65 25 28 36 26 80 -20z"/>
</g>
</svg>
